<?xml version="1.0" encoding="utf-8"?>
<!-- Generator: Adobe Illustrator 19.1.0, SVG Export Plug-In . SVG Version: 6.00 Build 0)  -->
<svg version="1.1" id="Layer_1" xmlns="http://www.w3.org/2000/svg" xmlns:xlink="http://www.w3.org/1999/xlink" x="0px" y="0px"
	 viewBox="0 0 40.2 38.1" style="enable-background:new 0 0 40.2 38.1;" xml:space="preserve">
<style type="text/css">
	.st0{fill-rule:evenodd;clip-rule:evenodd;fill:#A6A6A6;}
</style>
<path class="st0" d="M39.1,0c-4.9,2.8-9.9,6.8-15,12c-5.1,5.2-9.3,10.5-12.6,16l-0.9-2c-1.8-4-3.5-6.1-5-6.1C4,19.9,2.1,21,0,23.2
	c1.2,0.4,2.4,1.3,3.3,2.6c1,1.3,2.1,3.3,3.2,6l0.8,1.9c0.8,2.1,1.4,3.5,1.7,4.5c0.6-0.6,1.8-1.5,3.6-2.8l2.1-1.5
	c2.7-5.6,6.5-11.7,11.6-18.1c5-6.5,9.6-11.3,13.8-14.4L39.1,0L39.1,0z"/>
</svg>
