<?xml version="1.0" encoding="utf-8"?>
<!-- Generator: Adobe Illustrator 19.1.0, SVG Export Plug-In . SVG Version: 6.00 Build 0)  -->
<svg version="1.1" id="Layer_1" xmlns="http://www.w3.org/2000/svg" xmlns:xlink="http://www.w3.org/1999/xlink" x="0px" y="0px"
	 viewBox="0 0 431.6 163.8" style="enable-background:new 0 0 431.6 163.8;" xml:space="preserve">
<style type="text/css">
	.st0{fill:#FFFFFF;}
</style>
<g>
	<path class="st0" d="M28.4,101.2l-10,20.6h-3.1l-11.5-25C2.5,94,1.2,93.5,0,93.1v-0.4h11.4v0.4c-1.5,0.5-2.9,1.1-2.2,2.6l9.2,20.9
		l11-23.7h1.2l10.4,23.7L50.6,96c0.9-1.9-0.7-2.6-2.1-2.9v-0.4h8.7v0.4c-1.3,0.3-3.1,1.3-4.3,3.9l-11.9,24.8h-3.1L28.4,101.2z"/>
	<path class="st0" d="M106.5,97.6V98c-1.6,0.4-2.5,1.1-2.5,3.1v17.6c0,1.7,0.9,2.3,2.5,2.7v0.4h-10v-0.4c1.5-0.4,2.5-1,2.5-2.7v-8.1
		H79.9v8.1c0,1.7,1,2.3,2.5,2.7v0.4h-10v-0.4c1.5-0.4,2.4-1,2.4-2.7V101c0-2-0.8-2.6-2.4-3.1v-0.4h10V98c-1.6,0.4-2.5,1.1-2.5,3.1
		v7.3H99V101c0-2-0.9-2.6-2.5-3.1v-0.4H106.5z"/>
	<path class="st0" d="M136,97.6V98c-1.6,0.4-2.5,1.1-2.5,3.1v17.6c0,1.7,1,2.3,2.5,2.7v0.4h-10v-0.5c1.5-0.4,2.4-1,2.4-2.7V101
		c0-2-0.8-2.6-2.4-3.1v-0.4H136z"/>
	<path class="st0" d="M182,102.9h-0.4c-0.5-1.2-1.8-2.9-3.4-2.9h-7.9v18.7c0,1.7,1,2.3,2.5,2.7v0.4h-10v-0.4c1.5-0.4,2.5-1,2.5-2.7
		V99.9h-7.9c-1.6,0-2.9,1.7-3.4,2.9h-0.5l0.6-5.3h27.3L182,102.9z"/>
	<path class="st0" d="M207.2,108.3h9.9c1.6,0,2.6-1.1,2.9-2.4h0.4l-0.6,7.1h-0.5c-0.2-1.3-0.7-2.5-2.3-2.5h-9.9v8.3
		c0.1,0.5,0.4,0.7,0.8,0.7h13c2.3,0,4.3-1.7,4.9-3.4h0.5l-1.4,5.6h-25.5v-0.4c1.6-0.4,2.4-1.1,2.4-3V101c0-2-0.9-2.6-2.4-3.1v-0.4
		H224c0.4-0.1,0.6-0.2,0.9-0.4h0.5l-0.7,5.8h-0.5c-0.1-1.2-0.8-3.2-4-3.2h-13V108.3z"/>
	<path class="st0" d="M275,96.7c0-2.5-1-3.1-2.9-3.6v-0.4h20.6c8.1,0,12.2,3.4,12.2,7.8c0,4.4-4.1,7.9-12.2,7.9h-12.4v9.5
		c0,2.3,1,3,3,3.5v0.4h-11.1v-0.4c2-0.5,2.9-1.2,2.9-3.5V96.7z M282.6,94.9c-1.4,0-2.4,0.1-2.4,1.6v9.6h11.5c4.8,0,7-2.8,7-5.6
		c0-2.8-2.2-5.6-7-5.6H282.6z"/>
	<path class="st0" d="M332.4,97.6V98c-1.6,0.4-2.5,1.1-2.5,3.1v17.6c0,1.7,1,2.3,2.5,2.7v0.4h-10v-0.5c1.5-0.4,2.4-1,2.4-2.7V101
		c0-2-0.8-2.6-2.4-3.1v-0.4H332.4z"/>
	<path class="st0" d="M383.3,121.8h-3.6l-22.3-19.4v16.2c0,1.7,0.9,2.3,2.4,2.7v0.4h-8.3v-0.5c1.5-0.4,2.5-1,2.5-2.7v-18
		c-0.1-1.6-1-2.2-2.5-2.6v-0.4h7.6l20.9,18v-14.9c0-1.7-1-2.3-2.5-2.7v-0.4h8.3V98c-1.5,0.4-2.5,1-2.5,2.7V121.8z"/>
	<path class="st0" d="M412.4,108.3h9.9c1.6,0,2.6-1.1,2.9-2.4h0.4l-0.6,7.1h-0.5c-0.2-1.3-0.7-2.5-2.3-2.5h-9.9v8.3
		c0.1,0.5,0.3,0.7,0.8,0.7h13c2.3,0,4.3-1.7,4.9-3.4h0.5l-1.4,5.6h-25.5v-0.4c1.6-0.4,2.4-1.1,2.4-3V101c0-2-0.9-2.6-2.4-3.1v-0.4
		h24.5c0.4-0.1,0.6-0.2,0.9-0.4h0.5l-0.7,5.8h-0.5c-0.1-1.2-0.8-3.2-4-3.2h-13V108.3z"/>
</g>
<g>
	<path class="st0" d="M254.9,2.2h-11.3l-30.9,61.1l-25.1-51.9l-24.4,51.9L132.8,2.2h-11.4V1.3c4.5,0,11.9,0.2,16.4,0.2
		c4.4,0,11.9-0.2,16.4-0.2v0.9h-11.3l24.8,50L192,0l25.5,52.1l25.2-49.9h-11.2"/>
	<path class="st0" d="M280.3,1.3h-48.8v0.9h2.3h8.5h9.4h7.7h21c12.6,0,18.8,5.2,18.8,15.8c0,10.4-6.2,15.7-18.8,15.7h-14h-4.6h-3.8
		v0.9h3.8h8.7h10c14.2,0,29.9-3,29.9-16.6C310.2,4.1,294.5,1.3,280.3,1.3z"/>
</g>
<g>
	<path class="st0" d="M90.4,163.3v-13.4h-7.8v-2h17.9v2h-7.8v13.4H90.4z"/>
	<path class="st0" d="M123.3,163.3l-3.8-5.7h-6.8v5.7h-2.4V148h9.9c3.5,0,5.7,2.1,5.7,4.8c0,2.3-1.5,3.9-3.8,4.5l4,6H123.3z
		 M112.6,149.9v5.7h7c2.4,0,3.7-1,3.7-2.9c0-1.9-1.3-2.9-3.7-2.9H112.6z"/>
	<path class="st0" d="M152.1,163.3l-2.5-4h-9.8l-2.5,4h-2.8l10.2-15.9l10.3,15.9H152.1z M144.7,151.3l-3.8,6h7.5L144.7,151.3z"/>
	<path class="st0" d="M164.2,163.3V148h9c6,0,9.8,2.8,9.8,7.7c0,4.9-3.8,7.7-9.8,7.7H164.2z M173.2,161.4c4.2,0,7.3-2,7.3-5.7
		c0-3.8-3.1-5.7-7.3-5.7h-6.6v11.5H173.2z"/>
	<path class="st0" d="M193.7,163.3V148h2.4v15.3H193.7z"/>
	<path class="st0" d="M210.1,151.8v11.5h-2.4v-15.9l15.9,12.2V148h2.4v15.9L210.1,151.8z"/>
	<path class="st0" d="M249.7,157v-1.9h7.8c0,0.4,0.1,0.7,0.1,1c-0.2,5.1-4.5,7.8-9.9,7.8c-6.4,0-11-3.6-11-8.2
		c0-4.5,4.5-8.2,10.9-8.2c2.8,0,5.3,0.6,7.3,1.9v2.1c-1.5-1-3.7-1.8-6.2-2c-4.1-0.4-9.5,1.7-9.5,6.2c0,3.5,3.7,6.3,8.4,6.3
		c3.6,0,6.9-1.5,7.3-4.9H249.7z"/>
	<path class="st0" d="M284.9,163.3V148h2.4v13.4h12v1.9H284.9z"/>
	<path class="st0" d="M308.9,163.3V148h2.4v13.4h12v1.9H308.9z"/>
	<path class="st0" d="M348.9,161.9c-2,1.3-4.5,1.9-7.3,1.9c-6.4,0-11-3.7-11-8.2c0-4.6,4.5-8.2,11-8.2c2.8,0,5.3,0.6,7.3,2v2.1
		c-1.7-1.2-4.4-2.2-7.3-2.2c-4.8,0-8.4,2.8-8.4,6.3c0,3.5,3.7,6.3,8.4,6.3c2.9,0,5.5-1,7.3-2.2V161.9z"/>
</g>
</svg>
